<?xml version="1.0" standalone="no"?>
<!DOCTYPE svg PUBLIC "-//W3C//DTD SVG 20010904//EN"
 "http://www.w3.org/TR/2001/REC-SVG-20010904/DTD/svg10.dtd">
<svg version="1.0" xmlns="http://www.w3.org/2000/svg"
 width="550.000000pt" height="550.000000pt" viewBox="0 0 550.000000 550.000000"
 preserveAspectRatio="xMidYMid meet">
<metadata>
Created by potrace 1.14, written by Peter Selinger 2001-2017
</metadata>
<g transform="translate(0.000000,550.000000) scale(0.100000,-0.100000)"
fill="#000000" stroke="none">
<path d="M2604 5140 c-274 -71 -455 -303 -456 -581 0 -53 3 -105 6 -116 6 -18
2 -18 -51 8 -83 39 -155 54 -258 53 -162 -1 -303 -61 -420 -178 -129 -130
-180 -265 -173 -451 4 -93 10 -122 36 -190 76 -191 231 -326 431 -372 l69 -17
-48 -54 c-212 -238 -195 -596 40 -833 179 -180 423 -217 693 -104 16 7 17 -19
17 -470 l0 -477 -41 81 c-53 106 -138 219 -231 307 -201 190 -447 295 -748
318 l-75 6 -100 -100 -100 -100 595 -595 595 -595 365 0 365 0 595 595 595
595 -100 100 -100 101 -70 -6 c-330 -28 -596 -149 -799 -365 -73 -78 -160
-205 -201 -292 l-25 -53 0 479 c0 451 1 478 18 471 199 -84 379 -85 549 -4 49
23 90 54 144 108 236 237 252 597 35 837 l-44 50 70 17 c202 47 353 178 430
372 40 103 50 261 23 365 -53 206 -218 373 -430 436 -125 37 -326 16 -433 -47
l-33 -19 6 21 c4 11 7 64 7 117 -1 189 -83 358 -232 474 -142 112 -343 154
-516 108z m291 -1225 c63 -30 139 -108 168 -173 32 -71 30 -198 -4 -272 -33
-70 -99 -136 -169 -169 -79 -37 -201 -37 -280 0 -70 33 -136 99 -169 169 -35
73 -36 200 -4 272 25 54 90 128 141 160 88 54 222 60 317 13z"/>
</g>
</svg>
